<svg xmlns="http://www.w3.org/2000/svg" width="38.473" height="38.544" viewBox="0 0 38.473 38.544">
  <g id="gift" transform="translate(0 0.044)">
    <path id="Path_20" data-name="Path 20" d="M34.061,12.7V28.733a2.819,2.819,0,0,1-2.805,2.805H19.233V13.9h-2.4V31.538H4.805A2.819,2.819,0,0,1,2,28.733V12.7a1.211,1.211,0,0,1,1.2-1.2H32.859A1.211,1.211,0,0,1,34.061,12.7Z" transform="translate(1.206 6.962)" fill="#d32f2f"/>
    <path id="Path_21" data-name="Path 21" d="M38.473,9.805v4.008a2.819,2.819,0,0,1-2.805,2.805H2.805A2.819,2.819,0,0,1,0,13.813V9.805A2.819,2.819,0,0,1,2.805,7H35.668A2.819,2.819,0,0,1,38.473,9.805Z" transform="translate(0 4.248)" fill="#f44336"/>
    <path id="Path_22" data-name="Path 22" d="M12.452,12.922a1.2,1.2,0,0,1-1.189-1.379C11.856,7.535,14.987-.044,22.6-.044c4.344,0,5.885,2.347,5.885,4.357,0,3.573-4.974,8.608-16.031,8.608ZM22.6,2.361c-5.742,0-7.922,5.458-8.645,8.121a19.266,19.266,0,0,0,9.032-2.334c2.281-1.355,3.094-2.869,3.094-3.836,0-1.44-1.8-1.951-3.48-1.951Z" transform="translate(6.785 0)" fill="#ffc107"/>
    <path id="Path_23" data-name="Path 23" d="M18.032,12.922C6.974,12.922,2,7.886,2,4.313,2,2.3,3.543-.044,7.887-.044c7.61,0,10.741,7.579,11.334,11.587a1.2,1.2,0,0,1-1.189,1.379ZM7.887,2.361c-1.683,0-3.482.513-3.482,1.953,0,2.047,3.58,5.776,12.126,6.17C15.808,7.819,13.628,2.361,7.887,2.361Z" transform="translate(1.207 0)" fill="#ffc107"/>
    <path id="Path_24" data-name="Path 24" d="M13.655,13V30.634h-2.4V13Z" transform="translate(6.784 7.866)" fill="#ff8f00"/>
    <path id="Path_25" data-name="Path 25" d="M13.655,8.1v8.673h-2.4V8.1a1.453,1.453,0,0,1,.337-.946,1.135,1.135,0,0,1,1.731,0A1.447,1.447,0,0,1,13.655,8.1Z" transform="translate(6.784 4.097)" fill="#ffc107"/>
    <path id="Path_26" data-name="Path 26" d="M16.828,13H2V27.828a2.819,2.819,0,0,0,2.805,2.805H16.828Z" transform="translate(1.206 7.866)" fill="#b82929"/>
    <path id="Path_27" data-name="Path 27" d="M9.564,7H2.805A2.819,2.819,0,0,0,0,9.805v4.008a2.819,2.819,0,0,0,2.805,2.805H18.034V8.653A24.484,24.484,0,0,1,9.564,7Z" transform="translate(0 4.248)" fill="#d43a2f"/>
    <path id="Path_28" data-name="Path 28" d="M6.983,1.456C5.3,1.456,3.5,1.969,3.5,3.409c0,2.047,3.58,5.776,12.126,6.17-.723-2.664-2.9-8.123-8.644-8.123Z" transform="translate(2.111 0.905)" fill="#dedede"/>
    <path id="Path_29" data-name="Path 29" d="M16.53,10.482C7.985,10.089,4.4,6.36,4.4,4.312c0-1.44,1.8-1.953,3.482-1.953C13.628,2.361,15.808,7.819,16.53,10.482ZM7.887-.044C3.543-.044,2,2.3,2,4.313c0,2.28,2.023,5.152,6.356,6.935A24.492,24.492,0,0,0,16.828,12.9v-.707a1.453,1.453,0,0,1,.337-.946,1.193,1.193,0,0,1,.866-.4V7.457C16.453,3.8,13.3-.044,7.887-.044Z" transform="translate(1.207 0)" fill="#dea806"/>
    <path id="Path_30" data-name="Path 30" d="M12.452,13h-1.2V30.634h1.2Z" transform="translate(6.784 7.866)" fill="#de7c00"/>
    <path id="Path_31" data-name="Path 31" d="M12.452,6.75a1.193,1.193,0,0,0-.866.4,1.447,1.447,0,0,0-.337.946v8.673h1.2Z" transform="translate(6.784 4.097)" fill="#dea806"/>
  </g>
</svg>
