<svg id="INSTA" xmlns="http://www.w3.org/2000/svg" width="55.667" height="55.667" viewBox="0 0 55.667 55.667">
  <path id="Path_47" data-name="Path 47" d="M217.655,212.327A5.327,5.327,0,1,1,212.327,207,5.327,5.327,0,0,1,217.655,212.327Zm0,0" transform="translate(-184.494 -184.494)"/>
  <path id="Path_48" data-name="Path 48" d="M161.047,139.165a5.293,5.293,0,0,0-3.033-3.033,8.842,8.842,0,0,0-2.967-.55c-1.686-.077-2.191-.093-6.458-.093s-4.773.016-6.458.093a8.848,8.848,0,0,0-2.967.55,5.295,5.295,0,0,0-3.034,3.033,8.845,8.845,0,0,0-.55,2.968c-.077,1.685-.093,2.191-.093,6.458s.017,4.773.093,6.458a8.842,8.842,0,0,0,.55,2.967,5.293,5.293,0,0,0,3.033,3.033,8.832,8.832,0,0,0,2.968.55c1.685.077,2.19.093,6.458.093s4.774-.016,6.458-.093a8.832,8.832,0,0,0,2.968-.55,5.293,5.293,0,0,0,3.033-3.033,8.851,8.851,0,0,0,.55-2.967c.077-1.686.093-2.191.093-6.458s-.016-4.773-.093-6.458A8.832,8.832,0,0,0,161.047,139.165ZM148.588,156.8a8.207,8.207,0,1,1,8.207-8.207A8.207,8.207,0,0,1,148.588,156.8Zm8.531-14.821a1.918,1.918,0,1,1,1.918-1.918A1.918,1.918,0,0,1,157.119,141.978Zm0,0" transform="translate(-120.754 -120.758)"/>
  <path id="Path_49" data-name="Path 49" d="M27.833,0A27.833,27.833,0,1,0,55.667,27.833,27.837,27.837,0,0,0,27.833,0ZM43.72,34.423a11.726,11.726,0,0,1-.743,3.88A8.172,8.172,0,0,1,38.3,42.977a11.734,11.734,0,0,1-3.879.743c-1.7.078-2.249.1-6.589.1s-4.885-.019-6.59-.1a11.734,11.734,0,0,1-3.879-.743A8.172,8.172,0,0,1,12.691,38.3a11.723,11.723,0,0,1-.743-3.879c-.079-1.7-.1-2.249-.1-6.59s.018-4.885.1-6.589a11.727,11.727,0,0,1,.742-3.88,8.178,8.178,0,0,1,4.675-4.674,11.737,11.737,0,0,1,3.88-.743c1.7-.078,2.249-.1,6.589-.1s4.885.019,6.589.1a11.739,11.739,0,0,1,3.88.742,8.174,8.174,0,0,1,4.674,4.675,11.725,11.725,0,0,1,.743,3.88c.078,1.7.1,2.249.1,6.589S43.8,32.718,43.72,34.423Zm0,0"/>
</svg>
