<svg xmlns="http://www.w3.org/2000/svg" width="55" height="55" viewBox="0 0 55 55">
  <path id="twitter" d="M27.5,0A27.5,27.5,0,1,0,55,27.5,27.5,27.5,0,0,0,27.5,0ZM40.056,21.442q.018.406.018.816c0,8.341-6.349,17.959-17.959,17.959h0a17.867,17.867,0,0,1-9.675-2.835,12.837,12.837,0,0,0,1.506.087,12.665,12.665,0,0,0,7.84-2.7,6.319,6.319,0,0,1-5.9-4.384,6.291,6.291,0,0,0,2.851-.108,6.314,6.314,0,0,1-5.064-6.187c0-.029,0-.054,0-.081a6.268,6.268,0,0,0,2.859.789,6.317,6.317,0,0,1-1.954-8.427,17.921,17.921,0,0,0,13.011,6.6,6.315,6.315,0,0,1,10.756-5.756,12.66,12.66,0,0,0,4.008-1.532,6.337,6.337,0,0,1-2.776,3.491,12.589,12.589,0,0,0,3.625-.994,12.827,12.827,0,0,1-3.148,3.269Zm0,0"/>
</svg>
